<svg width="50" height="50" viewBox="0 0 50 50" fill="none" xmlns="http://www.w3.org/2000/svg">
<path d="M25 50C20.0555 50 15.222 48.5338 11.1108 45.7867C6.99952 43.0397 3.79521 39.1352 1.90302 34.5671C0.0108321 29.9989 -0.484251 24.9723 0.480379 20.1227C1.44501 15.2732 3.82603 10.8187 7.32234 7.32234C10.8187 3.82603 15.2732 1.44501 20.1227 0.480379C24.9723 -0.484251 29.9989 0.0108321 34.5671 1.90302C39.1352 3.79521 43.0397 6.99952 45.7867 11.1108C48.5338 15.222 50 20.0555 50 25C49.9942 31.6286 47.3584 37.9841 42.6712 42.6712C37.9841 47.3584 31.6286 49.9942 25 50V50Z" fill="#D31541"/>
<path d="M38.7688 23.2236V19.2077C38.7688 13.0956 34.9294 8.17505 25.2979 8.17505C16.5931 8.17505 11.827 13.1397 11.827 19.2077V23.2236" stroke="white" stroke-width="2.21" stroke-miterlimit="10"/>
<path d="M11.827 29.7661V38.1399C11.827 39.1826 12.2405 40.1827 12.9767 40.9211C13.713 41.6594 14.712 42.0756 15.7547 42.0786H34.8301C35.8747 42.0786 36.8765 41.6636 37.6152 40.925C38.3538 40.1863 38.7688 39.1845 38.7688 38.1399V29.7661" stroke="white" stroke-width="2.21" stroke-miterlimit="10"/>
<path d="M39.1109 23.2237H11.1652C10.7969 23.2179 10.4311 23.2855 10.0893 23.4227C9.74749 23.56 9.43649 23.764 9.17451 24.0229C8.91252 24.2818 8.70482 24.5904 8.56356 24.9306C8.4223 25.2707 8.35032 25.6356 8.35183 26.004V27.0079C8.35183 27.3716 8.42346 27.7317 8.56262 28.0677C8.70179 28.4036 8.90576 28.7089 9.16291 28.9661C9.42005 29.2232 9.72533 29.4272 10.0613 29.5663C10.3973 29.7055 10.7574 29.7771 11.121 29.7771H26.666V33.7268C26.666 34.312 26.8985 34.8733 27.3123 35.2871C27.7261 35.7009 28.2874 35.9334 28.8726 35.9334H30.4171C31.0023 35.9334 31.5636 35.7009 31.9774 35.2871C32.3912 34.8733 32.6237 34.312 32.6237 33.7268V29.7661H39.144C39.8784 29.7661 40.5828 29.4744 41.1021 28.955C41.6214 28.4357 41.9132 27.7313 41.9132 26.9969V26.004C41.9147 25.6366 41.843 25.2726 41.7024 24.9331C41.5619 24.5937 41.3552 24.2857 41.0944 24.0269C40.8335 23.7681 40.5239 23.5639 40.1833 23.426C39.8428 23.2881 39.4782 23.2193 39.1109 23.2237V23.2237Z" stroke="white" stroke-width="2.21" stroke-miterlimit="10"/>
<path d="M13.3716 12.5884C13.3716 12.5884 16.5049 17.4427 25.2979 17.4427C34.3998 17.4427 37.2242 12.5884 37.2242 12.5884" stroke="white" stroke-width="2.21" stroke-miterlimit="10"/>
<path d="M18.248 42.1226V49.6799" stroke="white" stroke-width="2.51" stroke-miterlimit="10"/>
<path d="M31.9065 42.1226V49.6799" stroke="white" stroke-width="2.59" stroke-miterlimit="10"/>
</svg>
